<?xml version="1.0" ?>
<!DOCTYPE svg  PUBLIC '-//W3C//DTD SVG 1.1//EN'  'http://www.w3.org/Graphics/SVG/1.1/DTD/svg11.dtd'>
<!-- Uploaded to: SVG Repo, www.svgrepo.com, Generator: SVG Repo Mixer Tools -->
<svg fill="#000000" width="800px" height="800px" viewBox="0 0 6000 6000" style="fill-rule:evenodd;clip-rule:evenodd;stroke-linejoin:round;stroke-miterlimit:2;" version="1.1" xml:space="preserve" xmlns="http://www.w3.org/2000/svg" xmlns:serif="http://www.serif.com/" xmlns:xlink="http://www.w3.org/1999/xlink">
<g transform="matrix(7.51266,0,0,7.51266,-7889.03,-4125.45)">
<path d="M1461.83,673.996C1473.5,683.236 1480.08,692.016 1483.54,700.668C1487.85,711.47 1487.29,722.049 1485.81,732.999C1484.29,744.173 1481.82,755.729 1482.35,768.275C1481.94,768.539 1481.52,768.797 1481.09,769.05C1478.21,770.748 1475.22,771.617 1472.17,771.782C1471.59,768.772 1469.57,765.668 1466.66,762.583C1460.88,756.455 1451.65,750.29 1444.57,744.756C1440.03,741.21 1436.36,737.971 1435.25,735.145C1435.07,734.667 1434.97,733.807 1434.91,732.648C1434.75,729.651 1434.9,724.83 1435.05,719.269C1435.36,707.176 1435.6,691.634 1432.64,683.452C1431.47,680.218 1429.77,678.093 1427.53,677.482C1425.33,676.881 1422.47,677.716 1418.89,680.769C1414.49,684.528 1412.92,691.286 1413.67,699.567C1414.76,711.58 1420.66,726.856 1429.08,740.396C1437.52,753.969 1448.49,765.785 1459.62,770.89C1463.27,772.564 1466.94,773.525 1470.55,773.612C1470.54,774.065 1470.49,774.515 1470.38,774.963C1469.84,777.343 1467.94,779.593 1464.31,781.748C1446.39,792.408 1428.82,788.231 1414.11,777.006C1400.73,766.796 1389.69,750.787 1382.85,734.667C1387.74,736.447 1393.17,737.123 1398.31,738.163C1406.53,739.825 1414,742.498 1416.79,753.193C1416.91,753.674 1417.41,753.962 1417.89,753.837C1418.37,753.711 1418.66,753.219 1418.53,752.739C1415.52,741.19 1407.55,738.194 1398.67,736.399C1394.42,735.539 1389.96,734.957 1385.8,733.754C1384.46,733.37 1383.16,732.922 1381.91,732.378C1377.93,722.397 1375.59,712.478 1375.34,703.968C1375.3,702.898 1375.44,701.406 1375.72,699.65C1377.72,697.562 1379.96,695.625 1382.17,693.832C1387.08,689.852 1391.9,686.558 1394.04,683.946C1395.19,682.542 1395.6,681.251 1395.26,680.152C1394.04,676.199 1392.69,673.711 1391.34,672.352C1390.28,671.278 1389.17,670.841 1388.09,670.864C1386.42,670.9 1384.68,672.113 1383.09,674.221C1378.94,679.684 1375.37,691.248 1374.06,698.788C1372.9,700.022 1371.82,701.306 1370.87,702.639C1368.08,706.562 1366.39,710.913 1366.9,715.69C1367.32,719.75 1369.33,724.139 1373.69,728.839C1375.69,730.999 1378.02,732.548 1380.53,733.712C1387.42,750.668 1398.95,767.701 1413.02,778.437C1427.39,789.401 1444.39,793.834 1461.84,785.149C1461.54,785.969 1461.39,786.924 1461.39,787.988C1461.39,789.385 1461.64,790.985 1462.05,792.689C1460.22,794.031 1458.44,795.494 1456.98,797.076C1454.81,799.441 1453.34,802.078 1453.28,804.948C1453.24,806.887 1453.84,808.945 1455.33,811.109C1460.73,818.947 1468.88,823.324 1477.26,827.523C1488.58,851.566 1500.92,874.915 1512.64,898.778C1510.59,909.972 1507.96,921.621 1509.32,935.585C1509.96,942.188 1513.52,947.967 1516.82,953.733C1519.96,959.228 1522.86,964.708 1522.33,971C1522.11,973.651 1518.45,982.391 1514.11,993.607C1507.48,1010.69 1499.22,1033.42 1498.5,1049.31C1498.18,1056.38 1499.38,1062.13 1502.69,1065.57C1502.91,1065.8 1503.14,1066.02 1503.38,1066.23C1502.25,1077.15 1501.76,1088.54 1499.41,1099.12C1498.45,1093.04 1496.97,1087.19 1494.92,1081.65C1486.78,1059.68 1468.79,1044.62 1455.56,1026.01C1435.12,997.273 1425.44,957.214 1421.07,922.814C1418.6,903.427 1417.84,882.58 1414.85,862.549C1419.67,860.027 1423.71,857.448 1425.93,854.726C1427.63,852.643 1428.32,850.462 1427.7,848.16C1424.52,836.365 1415,828.33 1403.5,821.48C1397.56,808.661 1388.98,797.11 1376.31,787.673C1372.91,785.143 1368.23,781.735 1363.39,779.691C1360.04,778.277 1356.61,777.52 1353.45,778.064C1351.48,778.405 1350.3,779.25 1349.65,780.307C1349.04,781.301 1348.89,782.517 1349.09,783.804C1349.34,785.521 1350.22,787.374 1351.21,788.87C1359.55,801.482 1376.36,809.088 1392.14,817.285C1395.54,819.048 1398.89,820.837 1402.09,822.715C1406.03,831.34 1408.78,840.542 1410.79,850.054C1411.6,853.839 1412.28,857.673 1412.88,861.541C1405.6,865.249 1396.79,868.897 1390.01,872.905C1385.19,875.754 1381.4,878.814 1379.76,882.158C1376.88,887.991 1377.04,895.265 1377.96,902.635C1378.85,909.782 1380.44,917.018 1380.44,923.033C1380.44,944.393 1372.11,964.478 1371.51,985.563C1371.25,994.652 1372.32,1004.15 1375.28,1012.77C1383.48,1036.73 1399.38,1055.08 1416.01,1072.83C1428.41,1086.06 1441.22,1098.95 1451.5,1113.65C1450.38,1126.61 1448.38,1149.67 1451.81,1163.47C1453.91,1171.9 1458.06,1176.92 1465.21,1175.08C1469.75,1173.9 1471.71,1169.7 1471.94,1164.08C1472.43,1151.89 1464.86,1132.93 1462.36,1128.08C1459.68,1122.86 1456.63,1117.9 1453.32,1113.13C1453.68,1109.09 1453.93,1106.1 1453.88,1104.75C1453.47,1092.79 1451,1080.73 1447.27,1069.37C1445.27,1063.28 1438.03,1051.44 1429.4,1037.14C1416.57,1015.87 1400.65,989.097 1394.61,967.769C1390.42,952.98 1390.91,940.849 1401.08,935.339C1401.71,934.997 1402.29,934.871 1402.83,934.977C1403.38,935.086 1403.88,935.426 1404.34,935.927C1405.49,937.166 1406.42,939.307 1407.21,942.003C1409.97,951.301 1410.98,966.993 1411.95,977.2C1412.37,981.706 1412.81,985.172 1413.35,986.64C1417.89,998.912 1425.83,1008.73 1434.02,1018.33C1442.09,1027.79 1450.41,1037.04 1455.83,1048.3C1460.61,1058.25 1462.28,1069.88 1464.22,1081.28C1466.21,1092.89 1468.49,1104.27 1474.45,1113.51C1478.11,1119.18 1482.62,1121.6 1486.8,1121.15C1490.97,1120.71 1494.93,1117.4 1497.5,1111.28C1497.91,1110.31 1498.29,1109.32 1498.65,1108.32C1500.15,1129.12 1496.01,1151.93 1487.87,1173.31C1476.13,1204.13 1456.06,1232 1432.47,1246.55C1432.05,1246.81 1431.92,1247.36 1432.18,1247.79C1432.44,1248.21 1432.99,1248.34 1433.42,1248.08C1457.3,1233.35 1477.66,1205.16 1489.55,1173.95C1498.35,1150.84 1502.5,1126.08 1500.05,1103.91C1503.28,1092.38 1503.81,1079.64 1505.04,1067.43C1507.06,1068.62 1509.59,1069.25 1512.72,1069.2C1514.95,1069.16 1517.11,1067.78 1519.14,1065.22C1521.91,1061.71 1524.49,1055.93 1526.84,1048.83C1535.83,1021.68 1541.65,975.029 1543.99,964.682C1559.52,895.945 1541.5,870.897 1520.9,845.244C1507.33,828.346 1492.6,811.194 1485.78,780.804C1484.89,776.838 1484.4,772.981 1484.19,769.213C1495.81,761.283 1500.12,748.867 1500.47,734.926C1501.05,711.967 1496.39,697.357 1488.7,687.849C1481.93,679.491 1472.8,675.057 1462.7,672.391C1459.79,670.097 1456.57,667.778 1453.02,665.428C1440.71,657.293 1426.55,652.128 1412.1,649.491C1410.52,649.204 1393.08,648.235 1390.23,648.983C1389.6,649.147 1389.32,649.503 1389.24,649.73C1389.12,650.019 1389.12,650.332 1389.34,650.657C1394.52,658.589 1402.2,662.97 1411.17,665.646C1419.98,668.274 1430.04,669.252 1440.15,670.42C1447.51,671.269 1454.9,672.211 1461.83,673.996ZM1453.08,1115.96C1451.94,1129.13 1450.35,1150.15 1453.56,1163.03C1455.36,1170.27 1458.62,1174.92 1464.76,1173.33C1468.55,1172.35 1469.95,1168.7 1470.14,1164C1470.62,1152.12 1463.19,1133.63 1460.76,1128.9C1458.45,1124.41 1455.87,1120.11 1453.08,1115.96ZM1413.16,863.415C1406.02,867.014 1397.51,870.562 1390.93,874.454C1386.47,877.092 1382.89,879.857 1381.37,882.953C1378.64,888.494 1378.88,895.411 1379.75,902.413C1380.65,909.637 1382.24,916.953 1382.24,923.033C1382.24,944.411 1373.9,964.512 1373.31,985.614C1373.06,994.49 1374.09,1003.77 1376.98,1012.19C1385.1,1035.9 1400.86,1054.03 1417.33,1071.6C1429.29,1084.37 1441.62,1096.83 1451.73,1110.88C1451.97,1108.01 1452.12,1105.89 1452.09,1104.82C1451.67,1093.02 1449.24,1081.13 1445.56,1069.93C1443.58,1063.91 1436.4,1052.22 1427.86,1038.07C1414.95,1016.67 1398.95,989.718 1392.88,968.259C1388.41,952.484 1389.37,939.634 1400.23,933.756C1401.29,933.181 1402.27,933.033 1403.18,933.211C1404.07,933.387 1404.9,933.889 1405.66,934.702C1406.95,936.092 1408.05,938.467 1408.94,941.492C1411.33,949.547 1412.43,962.348 1413.32,972.338C1413.89,978.847 1414.35,984.138 1415.04,986.016C1419.5,998.083 1427.33,1007.72 1435.39,1017.16C1443.56,1026.74 1451.97,1036.12 1457.45,1047.52C1462.31,1057.62 1464.02,1069.4 1466,1080.97C1467.94,1092.34 1470.12,1103.49 1475.96,1112.54C1479.15,1117.47 1482.97,1119.75 1486.61,1119.36C1490.26,1118.98 1493.6,1115.94 1495.84,1110.58C1496.77,1108.37 1497.56,1106.1 1498.23,1103.77C1497.37,1096.24 1495.73,1089.02 1493.23,1082.28C1485.15,1060.46 1467.23,1045.54 1454.09,1027.05C1433.49,998.085 1423.69,957.718 1419.28,923.041C1416.84,903.86 1416.08,883.247 1413.16,863.415ZM1482.46,770.327C1482.31,770.419 1482.16,770.51 1482,770.6C1478.89,772.439 1475.64,773.392 1472.34,773.583C1472.34,774.182 1472.27,774.776 1472.14,775.364C1471.62,777.633 1470.1,779.864 1467.24,781.974C1467.41,781.979 1467.58,781.99 1467.76,782.005C1470.22,782.214 1471.86,782.53 1472.86,782.924C1473.81,783.3 1474.29,783.808 1474.47,784.302C1474.64,784.727 1474.63,785.188 1474.42,785.68C1474.22,786.15 1473.79,786.684 1473.15,787.249C1471.36,788.837 1467.69,790.891 1464.1,793.411C1466.19,800.856 1471.19,809.883 1472.29,812.366C1474.36,817.007 1476.47,821.613 1478.62,826.192L1479.2,826.481C1487.97,830.854 1496.84,835.25 1502.93,843.419C1519.19,865.226 1517.64,881.378 1514.52,898.519C1515.65,900.824 1516.78,903.132 1517.89,905.445C1530.69,931.971 1530.59,956.065 1525.95,980.044C1521.35,1003.84 1512.27,1027.53 1507.04,1053.39C1506.26,1057.29 1505.7,1061.32 1505.26,1065.42C1507.12,1066.75 1509.57,1067.45 1512.69,1067.4C1514.47,1067.37 1516.11,1066.14 1517.72,1064.1C1520.4,1060.71 1522.86,1055.12 1525.13,1048.27C1534.11,1021.17 1539.9,974.612 1542.23,964.285C1557.56,896.431 1539.83,871.694 1519.5,846.371C1505.78,829.286 1490.91,811.924 1484.03,781.198C1483.2,777.486 1482.7,773.867 1482.46,770.327ZM1513.97,901.488C1512.03,911.805 1509.87,922.623 1511.11,935.411C1511.73,941.761 1515.21,947.295 1518.38,952.84C1521.7,958.658 1524.68,964.489 1524.13,971.149C1523.9,973.856 1520.23,982.804 1515.78,994.257C1509.22,1011.17 1501.01,1033.66 1500.3,1049.39C1500.02,1055.6 1500.88,1060.73 1503.63,1063.92C1504.05,1060.21 1504.56,1056.57 1505.28,1053.04C1510.5,1027.18 1519.58,1003.5 1524.18,979.702C1528.75,956.086 1528.88,932.352 1516.27,906.228C1515.51,904.644 1514.74,903.063 1513.97,901.488ZM1479.87,828.823C1490.56,851.391 1502.12,873.378 1513.18,895.787C1515.9,879.962 1516.57,864.721 1501.49,844.495C1495.91,837.014 1487.9,832.836 1479.87,828.823ZM1404.77,824.337C1408.22,832.387 1410.7,840.903 1412.55,849.681C1413.32,853.302 1413.98,856.968 1414.56,860.667C1418.89,858.375 1422.52,856.062 1424.54,853.588C1425.83,852.007 1426.43,850.374 1425.96,848.628C1423.1,838.017 1414.88,830.621 1404.77,824.337ZM1462.56,794.533C1460.75,795.898 1459.03,797.388 1457.69,799.001C1455.04,802.182 1453.91,805.878 1456.81,810.088C1461.6,817.032 1468.64,821.127 1476.03,824.885C1474.2,820.976 1472.41,817.05 1470.65,813.099C1469.79,811.181 1466.65,805.4 1464.28,799.423C1463.62,797.784 1463.03,796.13 1462.56,794.533ZM1400.73,819.872C1394.96,808.256 1386.86,797.776 1375.23,789.117C1371.93,786.659 1367.39,783.335 1362.69,781.349C1359.67,780.077 1356.6,779.349 1353.76,779.838C1352.44,780.065 1351.62,780.546 1351.19,781.248C1350.79,781.896 1350.74,782.697 1350.87,783.537C1351.09,785.011 1351.86,786.593 1352.71,787.877C1360.9,800.262 1377.48,807.638 1392.98,815.688C1395.61,817.054 1398.21,818.441 1400.73,819.872ZM1472.77,784.931C1472.75,784.907 1472.71,784.869 1472.68,784.845C1472.52,784.729 1472.29,784.628 1472.01,784.529C1471.1,784.211 1469.67,783.974 1467.61,783.799C1465.88,783.652 1464.72,784.005 1464.04,784.844C1463.51,785.483 1463.28,786.366 1463.21,787.404C1463.13,788.583 1463.29,789.948 1463.61,791.418L1463.64,791.568C1465.6,790.221 1467.54,789.012 1469.16,787.941C1470.51,787.049 1471.63,786.265 1472.3,785.577C1472.45,785.428 1472.57,785.287 1472.66,785.15C1472.71,785.081 1472.75,784.978 1472.77,784.931ZM1470.36,771.799C1469.78,769.19 1467.9,766.52 1465.35,763.818C1459.63,757.749 1450.48,751.656 1443.46,746.175C1438.6,742.379 1434.76,738.827 1433.58,735.802C1433.35,735.216 1433.19,734.166 1433.11,732.743C1432.95,729.715 1433.1,724.843 1433.25,719.222C1433.55,707.353 1433.85,692.095 1430.95,684.063C1430.03,681.506 1428.83,679.702 1427.06,679.219C1425.25,678.726 1422.99,679.634 1420.06,682.137C1416.03,685.581 1414.78,691.82 1415.47,699.405C1416.53,711.189 1422.35,726.163 1430.61,739.445C1438.84,752.693 1449.51,764.272 1460.37,769.254C1463.71,770.784 1467.06,771.685 1470.36,771.799ZM1466.2,675.261C1476.17,683.786 1481.99,691.961 1485.21,700C1489.64,711.107 1489.12,721.981 1487.59,733.241C1486.13,743.977 1483.75,755.069 1484.1,767.072C1494.51,759.461 1498.34,747.842 1498.67,734.88C1499.23,712.508 1494.8,698.246 1487.3,688.981C1481.67,682.032 1474.35,677.907 1466.2,675.261ZM1373.62,702.012C1373.17,702.56 1372.74,703.117 1372.34,703.683C1369.81,707.24 1368.23,711.17 1368.69,715.502C1369.08,719.25 1370.99,723.276 1375.01,727.615C1376.38,729.086 1377.9,730.251 1379.54,731.192C1375.9,721.627 1373.78,712.187 1373.54,704.022C1373.52,703.457 1373.55,702.781 1373.62,702.012ZM1376.3,696.542C1377.83,695.098 1379.44,693.729 1381.04,692.434C1385.17,689.083 1389.25,686.241 1391.65,683.88C1392.38,683.162 1392.95,682.499 1393.29,681.878C1393.53,681.443 1393.65,681.051 1393.54,680.684C1392.61,677.686 1391.64,675.597 1390.63,674.271C1389.8,673.181 1388.98,672.646 1388.12,672.664C1386.89,672.69 1385.71,673.744 1384.52,675.309C1380.95,680.013 1377.82,689.421 1376.3,696.542ZM1458.38,671.366C1456.4,669.9 1454.28,668.422 1452.02,666.929C1439.92,658.928 1425.99,653.855 1411.77,651.262C1410.42,651.014 1396.88,650.229 1391.94,650.567C1391.79,650.577 1391.63,650.593 1391.48,650.611C1396.41,657.58 1403.5,661.478 1411.69,663.921C1420.4,666.521 1430.36,667.477 1440.36,668.632C1446.44,669.334 1452.53,670.115 1458.38,671.366Z"/>
</g>
</svg>